<?xml version="1.0" encoding="UTF-8" standalone="no"?>
<!-- Created with Inkscape (http://www.inkscape.org/) -->

<svg
   xmlns:dc="http://purl.org/dc/elements/1.1/"
   xmlns:cc="http://creativecommons.org/ns#"
   xmlns:rdf="http://www.w3.org/1999/02/22-rdf-syntax-ns#"
   xmlns:svg="http://www.w3.org/2000/svg"
   xmlns="http://www.w3.org/2000/svg"
   xmlns:sodipodi="http://sodipodi.sourceforge.net/DTD/sodipodi-0.dtd"
   xmlns:inkscape="http://www.inkscape.org/namespaces/inkscape"
   width="256"
   height="256"
   viewBox="0 0 67.733332 67.733335"
   version="1.1"
   id="svg8"
   inkscape:version="0.92.4 (5da689c313, 2019-01-14)"
   sodipodi:docname="netczicompress-11.svg"
   inkscape:export-filename="C:\Users\y1mrn\Desktop\3-32.png"
   inkscape:export-xdpi="12.000001"
   inkscape:export-ydpi="12.000001">
  <defs
     id="defs2">
    <inkscape:path-effect
       effect="lattice2"
       gridpoint0="2.189895,246.43857"
       gridpoint1="62.996701,246.43857"
       gridpoint2="2.189895,281.38897"
       gridpoint3="62.996701,281.38897"
       gridpoint4="17.391596,246.43857"
       gridpoint5="46.927517,253.68239"
       gridpoint6="17.391596,281.38897"
       gridpoint7="46.927517,274.14516"
       gridpoint8x9="32.034225,250.5823"
       gridpoint10x11="32.034225,277.24525"
       gridpoint12="2.189895,255.17617"
       gridpoint13="62.996701,255.17617"
       gridpoint14="2.189895,272.65137"
       gridpoint15="62.996701,272.65137"
       gridpoint16="17.391596,255.17617"
       gridpoint17="47.795,255.17617"
       gridpoint18="17.391596,272.65137"
       gridpoint19="47.795,272.65137"
       gridpoint20x21="32.593298,255.17617"
       gridpoint22x23="32.593298,272.65137"
       gridpoint24x26="2.189895,263.91377"
       gridpoint25x27="62.996701,263.91377"
       gridpoint28x30="17.391596,263.91377"
       gridpoint29x31="47.795,263.91377"
       gridpoint32x33x34x35="32.593298,263.91377"
       id="path-effect837"
       is_visible="true"
       horizontal_mirror="true"
       vertical_mirror="false"
       live_update="true" />
    <inkscape:path-effect
       effect="envelope"
       id="path-effect835"
       is_visible="true"
       yy="true"
       xx="true"
       bendpath1="m 2.189895,246.43857 c 31.285889,11.8489 53.745959,2.60356 60.806806,0"
       bendpath2="m 62.996701,246.43857 c -4.449185,12.21767 -3.355773,23.80094 0,34.9504"
       bendpath3="m 2.189895,281.38897 c 20.127827,-3.31606 25.125866,-18.25931 60.806806,0"
       bendpath4="m 2.189895,246.43857 v 34.9504"
       bendpath1-nodetypes="cc"
       bendpath3-nodetypes="cc"
       bendpath2-nodetypes="cc" />
    <inkscape:path-effect
       effect="perspective-envelope"
       up_left_point="2.189895,246.43857"
       up_right_point="62.996701,246.43857"
       down_left_point="2.189895,281.38897"
       down_right_point="62.996701,281.38897"
       id="path-effect833"
       is_visible="true"
       deform_type="perspective"
       horizontal_mirror="false"
       vertical_mirror="false"
       overflow_perspective="false" />
    <inkscape:path-effect
       effect="lattice2"
       gridpoint0="2.189895,246.43857"
       gridpoint1="62.996701,246.43857"
       gridpoint2="2.189895,281.38897"
       gridpoint3="62.996701,281.38897"
       gridpoint4="17.391596,246.43857"
       gridpoint5="47.795,246.43857"
       gridpoint6="17.391596,281.38897"
       gridpoint7="47.795,281.38897"
       gridpoint8x9="32.593298,246.43857"
       gridpoint10x11="32.593298,281.38897"
       gridpoint12="2.189895,255.17617"
       gridpoint13="62.996701,255.17617"
       gridpoint14="2.189895,272.65137"
       gridpoint15="62.996701,272.65137"
       gridpoint16="17.391597,255.17617"
       gridpoint17="47.794999,255.17617"
       gridpoint18="17.391597,272.65137"
       gridpoint19="47.794999,272.65137"
       gridpoint20x21="32.593298,255.17617"
       gridpoint22x23="32.593298,272.65137"
       gridpoint24x26="2.189895,263.91377"
       gridpoint25x27="62.996701,263.91377"
       gridpoint28x30="17.391596,263.91377"
       gridpoint29x31="47.795,263.91377"
       gridpoint32x33x34x35="32.593298,263.91377"
       id="path-effect829"
       is_visible="true"
       horizontal_mirror="true"
       vertical_mirror="true"
       live_update="false" />
    <inkscape:path-effect
       effect="perspective-envelope"
       up_left_point="2.189895,246.43857"
       up_right_point="62.996701,246.43857"
       down_left_point="2.189895,281.38897"
       down_right_point="62.996701,281.38897"
       id="path-effect827"
       is_visible="true"
       deform_type="perspective"
       horizontal_mirror="false"
       vertical_mirror="false"
       overflow_perspective="false" />
    <filter
       inkscape:collect="always"
       style="color-interpolation-filters:sRGB"
       id="filter1477"
       x="-0.0024009347"
       width="1.0048019"
       y="-0.002399066"
       height="1.0047981">
      <feGaussianBlur
         inkscape:collect="always"
         stdDeviation="0.060830488"
         id="feGaussianBlur1479" />
    </filter>
  </defs>
  <sodipodi:namedview
     id="base"
     pagecolor="#ffffff"
     bordercolor="#666666"
     borderopacity="1.0"
     inkscape:pageopacity="0.0"
     inkscape:pageshadow="2"
     inkscape:zoom="1.4"
     inkscape:cx="-107.8393"
     inkscape:cy="58.38286"
     inkscape:document-units="mm"
     inkscape:current-layer="text817"
     showgrid="true"
     units="px"
     inkscape:window-width="1920"
     inkscape:window-height="1027"
     inkscape:window-x="-8"
     inkscape:window-y="-8"
     inkscape:window-maximized="1"
     inkscape:pagecheckerboard="true">
    <inkscape:grid
       type="xygrid"
       id="grid839"
       spacingx="2.6458333"
       spacingy="2.6458333" />
  </sodipodi:namedview>
  <metadata
     id="metadata5">
    <rdf:RDF>
      <cc:Work
         rdf:about="">
        <dc:format>image/svg+xml</dc:format>
        <dc:type
           rdf:resource="http://purl.org/dc/dcmitype/StillImage" />
        <dc:title></dc:title>
      </cc:Work>
    </rdf:RDF>
  </metadata>
  <g
     inkscape:label="Layer 1"
     inkscape:groupmode="layer"
     id="layer1"
     transform="translate(0,-229.26665)">
    <g
       aria-label="CZI"
       style="font-style:normal;font-variant:normal;font-weight:normal;font-stretch:normal;font-size:50.79999924px;line-height:1.25;font-family:'ZEISS Frutiger Next UI';-inkscape-font-specification:'ZEISS Frutiger Next UI';letter-spacing:0px;word-spacing:0px;fill:#000000;fill-opacity:1;stroke:none;stroke-width:0.26458332"
       id="text817">
      <path
         style="fill:#ffffff;fill-opacity:1;stroke:#ffffff;stroke-width:0.26458332;stroke-miterlimit:4;stroke-dasharray:none;stroke-dashoffset:0;stroke-opacity:1"
         d="m 2.613408,229.70608 1.984375,2.11667 1.984375,-2.11667 1.984375,2.11667 1.984375,-2.11667 1.984375,2.11667 1.984375,-2.11667 c 0,0 1.322917,2.11667 1.984375,2.11667 0.661458,0 1.984375,-2.11667 1.984375,-2.11667 l 1.984375,2.11667 1.984375,-2.11667 1.984375,2.11667 1.984375,-2.11667 1.984375,2.11667 1.984375,-2.11667 1.984375,2.11667 1.984375,-2.11667 1.984375,2.11667 1.984375,-2.11667 1.984375,2.11667 1.984375,-2.11667 1.984375,2.11667 1.984375,-2.11667 1.984375,2.11667 1.984375,-2.11667 1.984375,2.11667 1.984375,-2.11667 1.984375,2.11667 1.984375,-2.11667 1.984375,2.11667 1.984375,-2.11667 1.984375,2.11667 1.984375,-2.11667 v 66.675 l -1.984375,-2.11667 -1.984375,2.11667 c 0,0 -1.322917,-2.11667 -1.984375,-2.11667 -0.661458,0 -1.984375,2.11667 -1.984375,2.11667 l -1.984375,-2.11667 -1.984375,2.11667 -1.984375,-2.11667 -1.984375,2.11667 -1.984375,-2.11667 -1.984375,2.11667 -1.984375,-2.11667 -1.984375,2.11667 -1.984375,-2.11667 -1.984375,2.11667 -1.984375,-2.11667 -1.984375,2.11667 -1.984375,-2.11667 -1.984375,2.11667 -1.984375,-2.11667 -1.984375,2.11667 -1.984375,-2.11667 -1.984375,2.11667 -1.984375,-2.11667 -1.984375,2.11667 -1.984375,-2.11667 -1.984375,2.11667 -1.984375,-2.11667 -1.984375,2.11667 -1.984375,-2.11667 -1.984375,2.11667 -1.984375,-2.11667 -1.984375,2.11667 z"
         id="rect2523"
         inkscape:connector-curvature="0"
         sodipodi:nodetypes="cccccccsccccccccccccccccccccccccccccscccccccccccccccccccccccccccccc" />
      <g
         id="g4559"
         style="fill:#ffffff;stroke:#ffffff;filter:url(#filter1477)"
         transform="translate(0.53453906,-0.46772167)">
        <path
           id="path4553"
           style="fill:#ffffff;stroke:#ffffff;stroke-width:0.26458332"
           d="m 62.996701,280.83017 c -1.407115,-0.60401 -4.246972,-1.85878 -4.246972,-1.85878 0.01059,-10.04775 0,-30.16046 0,-30.16046 1.429773,-0.61224 4.246972,-1.86436 4.246972,-1.86436 z m -10.208837,-4.29826 c -4.452174,-1.66986 -9.267239,-3.07234 -14.490196,-3.40085 -4.720183,-0.29688 -8.377317,0.41469 -8.377317,0.41469 0.0098,-0.63215 0,-1.90904 0,-1.90904 3.909419,-3.98304 6.262011,-5.46591 11.044863,-9.63856 3.692559,-3.22146 6.824939,-6.88955 6.824939,-6.88955 -3.334129,0.78242 -6.973418,1.36341 -10.911938,1.44065 -3.571581,0.0701 -6.359774,-0.31398 -6.359774,-0.31398 0.0098,-0.62349 0,-1.89097 0,-1.89097 4.002568,0.58479 8.370568,0.6107 13.47744,-0.4512 4.608048,-0.95818 8.36463,-2.47549 8.36463,-2.47549 0.01052,0.82721 0,2.4693 0,2.4693 -3.62275,5.02573 -7.082977,8.39527 -11.350896,11.91941 -3.722367,3.07366 -6.623811,5.46472 -6.623811,5.46472 3.393837,-0.11347 7.092243,0.12938 11.385856,0.98151 3.871591,0.76837 7.016204,1.77847 7.016204,1.77847 0,0.83363 0,1.66726 0,2.50089 z m -33.75072,0.38854 c -3.428528,1.24138 -6.235837,1.80901 -8.844007,1.14782 -2.5164109,-0.68611 -4.4728337,-2.45462 -5.8840181,-5.0178 -1.4057411,-2.55329 -2.1192239,-5.66469 -2.1192239,-9.1367 0,-3.33585 0.7305196,-6.38127 2.1693535,-8.93213 1.4788252,-2.56038 3.4806997,-4.32908 6.0294585,-5.03056 2.595528,-0.74614 5.360082,-0.23462 8.648437,0.95601 1.294288,0.46863 2.640387,1.0272 4.040413,1.61588 1.382372,0.55902 2.629697,1.09613 3.630589,1.58367 -0.08837,0.71173 -0.29566,2.13733 -0.29566,2.13733 -1.006003,-0.46678 -2.191206,-0.9496 -3.481459,-1.42476 -1.267783,-0.49343 -2.503864,-0.93866 -3.699673,-1.28472 -2.650465,-0.76704 -4.867156,-1.00172 -6.843339,-0.378 -1.91791,0.6233 -3.3969046,1.95007 -4.4525358,3.89853 -1.0519238,1.90916 -1.5819634,4.24769 -1.5819634,6.85875 0,2.71073 0.5134523,5.11423 1.5326841,7.05827 1.0227649,1.91819 2.4864351,3.21826 4.4044801,3.81186 1.978833,0.56393 4.207185,0.30099 6.892118,-0.47679 2.826284,-0.81872 5.507867,-1.85498 7.328214,-2.74113 0.108808,0.68235 0.295742,2.00977 0.295742,2.00977 -0.974031,0.53836 -2.194081,1.10397 -3.582623,1.68387 -1.387423,0.57943 -2.808706,1.16179 -4.186987,1.66083 z"
           inkscape:path-effect="#path-effect837"
           inkscape:original-d="m 62.996701,280.83017 h -4.0132 v -33.8836 h 4.0132 z m -9.659145,0 H 30.883957 v -3.3528 l 17.6784,-27.178 h -17.0688 v -3.3528 h 21.437599 v 3.3528 l -17.525999,27.178 h 17.932399 z m -33.723261,0.5588 q -5.2832,0 -9.2456,-2.1336 -3.9116,-2.1844 -6.0452,-6.1468 -2.1336,-3.9624 -2.1336,-9.1948 0,-5.0292 2.1844,-8.9916 2.2352,-3.9624 6.1976,-6.1976 3.9624,-2.286 9.0424,-2.286 2.032,0 4.2164,0.3556 2.1844,0.3048 3.7592,0.9652 l -0.3048,3.6068 q -1.5748,-0.7112 -3.6068,-1.0668 -1.9812,-0.4064 -3.8608,-0.4064 -4.1148,0 -7.1628,1.8288 -2.9972001,1.8288 -4.6228001,5.0292 -1.6255999,3.1496 -1.6255999,7.1628 0,4.1656 1.5748,7.366 1.5747999,3.1496 4.572,4.9276 3.048,1.7272 7.2136,1.7272 4.6228,0 7.62,-1.4732 l 0.3048,3.4036 q -1.524,0.8128 -3.7084,1.1684 -2.1844,0.3556 -4.3688,0.3556 z"
           inkscape:connector-curvature="0" />
        <path
           style="fill:#ffffff;fill-opacity:1;stroke:#ffffff;stroke-width:0.97982633;stroke-linecap:butt;stroke-linejoin:miter;stroke-opacity:1"
           d="M 34.395833,281.12498 31.75,294.35415 h 7.9375 l -2.645834,-13.22917 10.583333,4.15774 -11.906249,-6.80357 -11.906251,6.80357 z"
           id="path4555"
           inkscape:connector-curvature="0"
           sodipodi:nodetypes="cccccccc" />
        <path
           sodipodi:nodetypes="cccccccc"
           inkscape:connector-curvature="0"
           id="path4557"
           d="M 37.041666,246.72915 39.6875,233.49998 H 31.75 l 2.645833,13.22917 -10.583333,-4.15774 11.906249,6.80357 11.906251,-6.80357 z"
           style="fill:#ffffff;fill-opacity:1;stroke:#ffffff;stroke-width:0.97982609;stroke-linecap:butt;stroke-linejoin:miter;stroke-opacity:1" />
      </g>
      <g
         id="g4551"
         transform="translate(1.0637058,-0.99688834)">
        <path
           inkscape:connector-curvature="0"
           inkscape:original-d="m 62.996701,280.83017 h -4.0132 v -33.8836 h 4.0132 z m -9.659145,0 H 30.883957 v -3.3528 l 17.6784,-27.178 h -17.0688 v -3.3528 h 21.437599 v 3.3528 l -17.525999,27.178 h 17.932399 z m -33.723261,0.5588 q -5.2832,0 -9.2456,-2.1336 -3.9116,-2.1844 -6.0452,-6.1468 -2.1336,-3.9624 -2.1336,-9.1948 0,-5.0292 2.1844,-8.9916 2.2352,-3.9624 6.1976,-6.1976 3.9624,-2.286 9.0424,-2.286 2.032,0 4.2164,0.3556 2.1844,0.3048 3.7592,0.9652 l -0.3048,3.6068 q -1.5748,-0.7112 -3.6068,-1.0668 -1.9812,-0.4064 -3.8608,-0.4064 -4.1148,0 -7.1628,1.8288 -2.9972001,1.8288 -4.6228001,5.0292 -1.6255999,3.1496 -1.6255999,7.1628 0,4.1656 1.5748,7.366 1.5747999,3.1496 4.572,4.9276 3.048,1.7272 7.2136,1.7272 4.6228,0 7.62,-1.4732 l 0.3048,3.4036 q -1.524,0.8128 -3.7084,1.1684 -2.1844,0.3556 -4.3688,0.3556 z"
           inkscape:path-effect="#path-effect837"
           d="m 62.996701,280.83017 c -1.407115,-0.60401 -4.246972,-1.85878 -4.246972,-1.85878 0.01059,-10.04775 0,-30.16046 0,-30.16046 1.429773,-0.61224 4.246972,-1.86436 4.246972,-1.86436 z m -10.208837,-4.29826 c -4.452174,-1.66986 -9.267239,-3.07234 -14.490196,-3.40085 -4.720183,-0.29688 -8.377317,0.41469 -8.377317,0.41469 0.0098,-0.63215 0,-1.90904 0,-1.90904 3.909419,-3.98304 6.262011,-5.46591 11.044863,-9.63856 3.692559,-3.22146 6.824939,-6.88955 6.824939,-6.88955 -3.334129,0.78242 -6.973418,1.36341 -10.911938,1.44065 -3.571581,0.0701 -6.359774,-0.31398 -6.359774,-0.31398 0.0098,-0.62349 0,-1.89097 0,-1.89097 4.002568,0.58479 8.370568,0.6107 13.47744,-0.4512 4.608048,-0.95818 8.36463,-2.47549 8.36463,-2.47549 0.01052,0.82721 0,2.4693 0,2.4693 -3.62275,5.02573 -7.082977,8.39527 -11.350896,11.91941 -3.722367,3.07366 -6.623811,5.46472 -6.623811,5.46472 3.393837,-0.11347 7.092243,0.12938 11.385856,0.98151 3.871591,0.76837 7.016204,1.77847 7.016204,1.77847 0,0.83363 0,1.66726 0,2.50089 z m -33.75072,0.38854 c -3.428528,1.24138 -6.235837,1.80901 -8.844007,1.14782 -2.5164109,-0.68611 -4.4728337,-2.45462 -5.8840181,-5.0178 -1.4057411,-2.55329 -2.1192239,-5.66469 -2.1192239,-9.1367 0,-3.33585 0.7305196,-6.38127 2.1693535,-8.93213 1.4788252,-2.56038 3.4806997,-4.32908 6.0294585,-5.03056 2.595528,-0.74614 5.360082,-0.23462 8.648437,0.95601 1.294288,0.46863 2.640387,1.0272 4.040413,1.61588 1.382372,0.55902 2.629697,1.09613 3.630589,1.58367 -0.08837,0.71173 -0.29566,2.13733 -0.29566,2.13733 -1.006003,-0.46678 -2.191206,-0.9496 -3.481459,-1.42476 -1.267783,-0.49343 -2.503864,-0.93866 -3.699673,-1.28472 -2.650465,-0.76704 -4.867156,-1.00172 -6.843339,-0.378 -1.91791,0.6233 -3.3969046,1.95007 -4.4525358,3.89853 -1.0519238,1.90916 -1.5819634,4.24769 -1.5819634,6.85875 0,2.71073 0.5134523,5.11423 1.5326841,7.05827 1.0227649,1.91819 2.4864351,3.21826 4.4044801,3.81186 1.978833,0.56393 4.207185,0.30099 6.892118,-0.47679 2.826284,-0.81872 5.507867,-1.85498 7.328214,-2.74113 0.108808,0.68235 0.295742,2.00977 0.295742,2.00977 -0.974031,0.53836 -2.194081,1.10397 -3.582623,1.68387 -1.387423,0.57943 -2.808706,1.16179 -4.186987,1.66083 z"
           style="stroke-width:0.26458332"
           id="path823" />
        <path
           sodipodi:nodetypes="cccccccc"
           inkscape:connector-curvature="0"
           id="path4544"
           d="M 34.395833,281.12498 31.75,294.35415 h 7.9375 l -2.645834,-13.22917 10.583333,4.15774 -11.906249,-6.80357 -11.906251,6.80357 z"
           style="fill:#000000;fill-opacity:1;stroke:#000000;stroke-width:0.97982633;stroke-linecap:butt;stroke-linejoin:miter;stroke-opacity:1" />
        <path
           style="fill:#000000;fill-opacity:1;stroke:#000000;stroke-width:0.97982609;stroke-linecap:butt;stroke-linejoin:miter;stroke-opacity:1"
           d="M 37.041666,246.72915 39.6875,233.49998 H 31.75 l 2.645833,13.22917 -10.583333,-4.15774 11.906249,6.80357 11.906251,-6.80357 z"
           id="path4546"
           inkscape:connector-curvature="0"
           sodipodi:nodetypes="cccccccc" />
      </g>
    </g>
  </g>
</svg>
